<svg xmlns="http://www.w3.org/2000/svg" width="1200" height="760" viewBox="0 0 1200 760"><rect width="1200" height="760" fill="#f3f8f4"/><rect width="1200" height="84" fill="#fff"/><circle cx="66" cy="42" r="26" fill="#2f7d32"/><text x="108" y="50" font-family="Arial" font-size="23" font-weight="700" fill="#1f5f2a">Studentsko delo</text><text x="86" y="165" font-family="Arial" font-size="44" font-weight="700" fill="#123b1d">Pozdravljeni v portalu!</text><text x="88" y="205" font-family="Arial" font-size="20" fill="#607068">Izbira vrste racuna</text><rect x="86" y="250" width="1028" height="360" rx="16" fill="#ffffff" stroke="#dce8de"/><rect x="125" y="305" width="295" height="210" rx="12" fill="#f8faf8" stroke="#dce8de"/><text x="155" y="365" font-family="Arial" font-size="27" font-weight="700" fill="#17251b">Sem dijak / student</text><rect x="155" y="430" width="185" height="44" rx="9" fill="#2f7d32"/><text x="190" y="458" font-family="Arial" font-size="15" font-weight="700" fill="#fff">Odpri</text><rect x="455" y="305" width="295" height="210" rx="12" fill="#f8faf8" stroke="#dce8de"/><text x="485" y="365" font-family="Arial" font-size="27" font-weight="700" fill="#17251b">Sem podjetje</text><rect x="485" y="430" width="185" height="44" rx="9" fill="#2f7d32"/><text x="520" y="458" font-family="Arial" font-size="15" font-weight="700" fill="#fff">Odpri</text><rect x="785" y="305" width="295" height="210" rx="12" fill="#f8faf8" stroke="#dce8de"/><text x="815" y="365" font-family="Arial" font-size="27" font-weight="700" fill="#17251b">Prijava / Registracija</text><rect x="815" y="430" width="185" height="44" rx="9" fill="#2f7d32"/><text x="850" y="458" font-family="Arial" font-size="15" font-weight="700" fill="#fff">Odpri</text></svg>