<svg xmlns="http://www.w3.org/2000/svg" width="980" height="620" viewBox="0 0 980 620"><rect width="980" height="620" fill="#f7fbf8"/><style>.box{fill:#fff;stroke:#2f7d32;stroke-width:2;rx:10}.title{font:700 18px Arial,sans-serif;fill:#1f5f2a}.text{font:14px Arial,sans-serif;fill:#263238}.line{stroke:#445;stroke-width:2;fill:none}.rel{font:13px Arial,sans-serif;fill:#445}</style><text x="40" y="45" class="title">E-R model: Studentsko delo</text><rect x="40" y="90" width="230" height="160" class="box"/><text x="60" y="120" class="title">uporabniki</text><text x="60" y="150" class="text">id, ime, priimek</text><text x="60" y="174" class="text">email, geslo</text><text x="60" y="198" class="text">kraj_id</text><text x="60" y="222" class="text">vrste_uporabnikov_id</text><rect x="40" y="360" width="230" height="135" class="box"/><text x="60" y="390" class="title">podjetja</text><text x="60" y="420" class="text">id, naziv</text><text x="60" y="444" class="text">email, geslo, telefon</text><text x="60" y="468" class="text">kraj_id</text><rect x="385" y="330" width="230" height="170" class="box"/><text x="405" y="360" class="title">objave</text><text x="405" y="390" class="text">id, naziv, opis</text><text x="405" y="414" class="text">placilo, trajanje</text><text x="405" y="438" class="text">podjetje_id</text><rect x="385" y="90" width="230" height="150" class="box"/><text x="405" y="120" class="title">prijave</text><text x="405" y="150" class="text">id</text><text x="405" y="174" class="text">uporabnik_id</text><text x="405" y="198" class="text">objava_id</text><text x="405" y="222" class="text">status</text><rect x="710" y="90" width="220" height="130" class="box"/><text x="730" y="120" class="title">vrste_uporabnikov</text><text x="730" y="150" class="text">id</text><text x="730" y="174" class="text">naziv</text><rect x="710" y="360" width="220" height="130" class="box"/><text x="730" y="390" class="title">kraji</text><text x="730" y="420" class="text">id</text><text x="730" y="444" class="text">naziv</text><text x="730" y="468" class="text">postna_stevilka</text><path d="M270 160 H385" class="line"/><text x="290" y="150" class="rel">1:N prijave</text><path d="M500 240 V330" class="line"/><text x="515" y="288" class="rel">N:1 objava</text><path d="M270 428 H385" class="line"/><text x="290" y="418" class="rel">1:N objave</text><path d="M270 210 C455 280 560 360 710 420" class="line"/><text x="520" y="315" class="rel">kraj</text><path d="M270 455 C455 510 560 470 710 455" class="line"/><text x="520" y="505" class="rel">kraj</text><path d="M270 120 H710" class="line"/><text x="470" y="110" class="rel">vloga</text></svg>